<?xml version="1.0" encoding="utf-8"?>
<!-- Generator: Adobe Illustrator 15.1.0, SVG Export Plug-In . SVG Version: 6.00 Build 0)  -->
<!DOCTYPE svg PUBLIC "-//W3C//DTD SVG 1.1 Basic//EN" "http://www.w3.org/Graphics/SVG/1.1/DTD/svg11-basic.dtd">
<svg version="1.1" baseProfile="basic" id="Layer_1"
	 xmlns="http://www.w3.org/2000/svg" xmlns:xlink="http://www.w3.org/1999/xlink" x="0px" y="0px" width="465px" height="275px"
	 viewBox="0 0 465 275" xml:space="preserve">
<g>
	<g>
		<g>
			<g>
				<g>
					<path fill="#424242" d="M272.208,77.985c13.815,0,26.733,5.392,36.37,15.182c9.607,9.761,14.898,22.793,14.898,36.698
						c0,9.195-2.541,18.227-7.35,26.117c-4.641,7.615-11.277,14.031-19.193,18.554l-1.008,0.575v1.16v17.875
						c-1.574,1.194-9.96,2.84-24.174,2.84s-22.6-1.646-24.174-2.84v-17.875v-1.16l-1.01-0.576
						c-16.334-9.319-26.086-26.02-26.086-44.669c0-3.37,0.195-6.108,0.613-8.616l0.068-0.41
						C225.53,95.994,246.96,77.985,272.208,77.985 M272.208,75.985c-26.64,0-48.705,19.342-53.054,44.744l-0.058,0.094l0.027,0.097
						c-0.486,2.915-0.641,5.892-0.641,8.945c0,19.889,10.732,37.07,27.096,46.406v18.246c0,2.979,13.087,4.469,26.174,4.469
						s26.174-1.488,26.174-4.469v-18.246c16.357-9.344,27.551-26.518,27.551-46.406C325.477,100.103,301.971,75.985,272.208,75.985
						L272.208,75.985z"/>
				</g>
			</g>
			<g>
				<g>
					<g>
						<path fill="#424242" d="M287.917,205.563c1.688,0,3.392,0.899,3.392,2.908c0,2.008-1.703,2.906-3.392,2.906h-32.325
							c-1.689,0-3.395-0.898-3.395-2.906c0-2.009,1.705-2.908,3.395-2.908H287.917 M287.917,203.563h-32.325
							c-2.98,0-5.395,1.931-5.395,4.908s2.412,4.906,5.395,4.906h32.325c2.978,0,5.392-1.93,5.392-4.906
							C293.309,205.492,290.895,203.563,287.917,203.563L287.917,203.563z"/>
					</g>
				</g>
				<g>
					<g>
						<path fill="#424242" d="M284.771,218.646c1.399,0,2.34,1.17,2.34,2.91c0,1.739-0.939,2.909-2.34,2.909h-26.037
							c-1.398,0-2.34-1.17-2.34-2.909c0-1.74,0.94-2.91,2.34-2.91H284.771 M284.771,216.646h-26.037c-2.397,0-4.34,1.932-4.34,4.91
							c0,2.975,1.941,4.909,4.34,4.909h26.037c2.398,0,4.34-1.936,4.34-4.909C289.111,218.578,287.171,216.646,284.771,216.646
							L284.771,216.646z"/>
					</g>
				</g>
				<g>
					<g>
						<path fill="#424242" d="M276.991,231.734c-1.364,1.056-3.074,1.953-4.902,1.953c-1.823,0-3.53-0.897-4.894-1.953H276.991
							 M281.618,229.734h-19.045c0.974,1.524,4.766,5.953,9.516,5.953C276.854,235.688,280.645,231.26,281.618,229.734
							L281.618,229.734z"/>
					</g>
				</g>
			</g>
		</g>
		<polyline fill="none" stroke="#A0A6B0" stroke-miterlimit="10" points="266.91,144.176 288.934,144.176 272.252,187.195 
			268.35,170.061 		"/>
		<path fill="none" stroke="#FF8D3A" stroke-miterlimit="10" d="M236.695,152.736c-4.32-6.664-6.831-14.613-6.831-23.156
			c0-22.266,17.067-40.623,38.831-42.563"/>
	</g>
	<circle fill="#FF8D3A" cx="217.973" cy="197.555" r="5.414"/>
	<path fill="none" stroke="#A0A6B0" stroke-width="2" stroke-miterlimit="10" d="M339.475,261.031"/>
	<path fill="none" stroke="#A0A6B0" stroke-width="2" stroke-miterlimit="10" d="M206.474,261.031"/>
	<g>
		<circle fill="#424242" cx="121.982" cy="180.363" r="6.678"/>
	</g>
	<g>
		<polyline fill="none" stroke="#424242" stroke-width="2" stroke-miterlimit="10" points="279.475,66.366 229.536,15.931 
			78.807,171.699 		"/>
		<g>
			<g>
				
					<line fill="none" stroke="#424242" stroke-width="2" stroke-miterlimit="10" x1="339.91" y1="260.676" x2="339.91" y2="186.676"/>
				
					<line fill="none" stroke="#424242" stroke-width="2" stroke-miterlimit="10" x1="122.91" y1="180.676" x2="122.91" y2="260.676"/>
			</g>
			<polyline fill="none" stroke="#424242" stroke-width="2" stroke-miterlimit="10" points="204.91,260.676 204.91,182.676 
				163.91,182.676 163.91,260.676 			"/>
			<g>
				
					<line fill="none" stroke="#424242" stroke-width="2" stroke-miterlimit="10" x1="164.91" y1="260.676" x2="93.91" y2="260.676"/>
				
					<line fill="none" stroke="#424242" stroke-width="2" stroke-miterlimit="10" x1="377.91" y1="260.676" x2="203.91" y2="260.676"/>
			</g>
		</g>
	</g>
	<g>
		<polyline fill="none" stroke="#FF8D3A" stroke-miterlimit="10" points="218.41,195.676 218.41,249.176 326.41,249.176 
			326.41,161.676 		"/>
	</g>
	
		<line fill="none" stroke="#424242" stroke-width="2" stroke-miterlimit="10" x1="336.706" y1="126.468" x2="380.475" y2="171.699"/>
	<circle fill="#424242" cx="380.409" cy="171.346" r="6.679"/>
</g>
</svg>
